<svg version="1.1" id="Layer_1" xmlns="http://www.w3.org/2000/svg" xmlns:xlink="http://www.w3.org/1999/xlink" x="0px" y="0px"
	 width="100%" viewBox="0 0 1024 1024" enable-background="new 0 0 1024 1024" xml:space="preserve">
<path fill="#000000" opacity="1.000000" stroke="none"
	d="
M473.123718,764.203857
	C425.460571,759.148315 389.151794,736.618103 364.377411,696.100464
	C353.521820,678.346558 348.034058,658.816528 346.536987,637.966064
	C342.053345,575.520752 386.057495,516.426819 447.300537,499.987335
	C459.585419,496.689728 472.149658,495.442810 484.881287,495.540039
	C494.037750,495.609955 503.200317,495.496826 512.358887,495.348083
	C517.469666,495.265106 517.938171,493.265228 517.927124,489.129395
	C517.819763,448.805817 517.866272,408.481812 517.859863,368.157928
	C517.854004,331.000000 517.816956,293.842041 517.836975,256.684113
	C517.842896,245.674026 524.172180,237.998901 534.164185,236.657120
	C544.340515,235.290588 552.656921,240.657486 555.650330,250.405716
	C556.407043,252.869995 556.269653,255.347931 556.270081,257.834167
	C556.283508,334.816254 556.281921,411.798370 556.287964,488.780457
	C556.288513,495.621216 556.305359,495.635040 563.154175,495.621033
	C574.817810,495.597198 586.481873,495.605347 598.144958,495.503662
	C608.411194,495.414185 616.365723,502.384369 617.461243,512.585205
	C618.516174,522.408691 611.774231,531.536926 601.982544,533.336182
	C599.544067,533.784180 597.017456,533.903259 594.530579,533.911499
	C583.366821,533.948547 572.198914,534.048157 561.040833,533.781250
	C557.210754,533.689697 556.197754,534.988281 556.222046,538.636963
	C556.353088,558.298157 556.356201,577.961243 556.230713,597.622559
	C556.173889,606.524841 549.977661,613.876160 541.293030,615.926819
	C533.109924,617.859070 524.060303,613.740784 520.140320,606.242371
	C518.320740,602.761719 517.845886,598.994446 517.856201,595.103333
	C517.904358,576.941223 517.901062,558.778992 517.910461,540.616760
	C517.913757,534.158386 517.653259,533.768860 511.143311,533.920898
	C495.520050,534.285706 479.819061,532.746460 464.314575,536.068176
	C421.778046,545.181274 390.163361,578.741882 385.712311,621.845886
	C382.500793,652.945923 394.498688,679.010986 417.492432,699.783936
	C436.400513,716.865723 458.971283,725.284485 484.471191,725.735352
	C500.878113,726.025452 510.533295,741.124390 502.894867,754.723267
	C498.688812,762.211365 491.796478,764.894653 483.566010,764.738831
	C480.238495,764.675781 476.914948,764.402222 473.123718,764.203857
z"/>
<path fill="#000000" opacity="1.000000" stroke="none"
	d="
M746.783447,267.408936
	C761.897888,320.081543 753.952209,368.326050 719.347839,410.682251
	C694.118958,441.562653 661.167053,459.836334 621.064697,464.446930
	C609.906128,465.729828 598.770874,465.142578 587.626587,465.239990
	C576.950989,465.333313 568.156677,456.737335 568.024109,446.569458
	C567.884338,435.846283 576.221619,427.140259 587.162903,426.855743
	C598.307068,426.565918 609.544617,427.633362 620.549683,425.273285
	C669.608704,414.752319 700.787354,385.375366 712.604004,336.445892
	C722.664978,294.786102 703.648438,248.654099 666.516846,222.954681
	C646.646057,209.201767 624.708069,202.143982 600.416138,202.177292
	C518.930908,202.289001 437.445435,202.235657 355.960052,202.244156
	C353.793884,202.244385 351.623444,202.314972 349.462280,202.207138
	C338.578033,201.664062 330.783447,193.889725 330.594147,183.446335
	C330.388733,172.115677 337.661682,163.869446 348.795349,162.873108
	C350.449982,162.725052 352.125671,162.792511 353.791626,162.792877
	C435.443665,162.810638 517.095703,162.801849 598.747742,162.864075
	C648.696228,162.902130 689.486755,182.535522 721.331360,220.809769
	C732.742615,234.525070 740.792786,250.210159 746.783447,267.408936
z"/>
<path fill="#000000" opacity="1.000000" stroke="none"
	d="
M539.499268,806.921326
	C526.898621,807.547180 517.993286,799.649109 517.944641,787.565735
	C517.781921,747.105469 517.763489,706.643921 517.880493,666.183472
	C517.914612,654.397644 526.090820,646.484619 537.328430,646.608276
	C548.460022,646.730835 556.261963,654.952026 556.269653,666.721497
	C556.295654,706.516846 556.284668,746.312134 556.273987,786.107483
	C556.270996,797.182678 550.847351,804.021912 539.499268,806.921326
z"/>
<path fill="#000000" opacity="1.000000" stroke="none"
	d="
M430.678040,458.087830
	C422.939636,443.408783 430.936768,428.761353 447.070953,428.163605
	C460.044464,427.682983 473.057861,427.797119 486.039368,428.158295
	C497.597260,428.479858 505.350494,436.604706 505.326599,447.494293
	C505.302856,458.292328 497.391052,466.559479 485.985046,466.858124
	C472.669312,467.206757 459.335083,467.116638 446.014404,466.890808
	C439.645447,466.782806 434.616394,463.574036 430.678040,458.087830
z"/>
<path fill="#000000" opacity="1.000000" stroke="none"
	d="
M643.957520,737.416504
	C649.207458,752.363403 640.825989,764.717590 625.477234,764.928772
	C612.830872,765.102783 600.175842,765.123718 587.532166,764.855896
	C577.322693,764.639587 569.901184,758.165466 568.160828,748.645691
	C566.672607,740.505066 571.473083,731.603577 579.178223,728.186523
	C581.817139,727.016235 584.571167,726.645996 587.446594,726.656189
	C600.095520,726.701294 612.748352,726.854309 625.392700,726.607422
	C633.772827,726.443787 639.777161,729.851685 643.957520,737.416504
z"/>
</svg>
